<mxfile host="app.diagrams.net" agent="Mozilla/5.0 (Windows NT 10.0; Win64; x64) AppleWebKit/537.36 (KHTML, like Gecko) Chrome/138.0.0.0 Safari/537.36" version="28.0.7">
  <diagram name="Page-1" id="GjUdLIClGsQXsvGFf7f6">
    <mxGraphModel dx="1429" dy="820" grid="1" gridSize="10" guides="1" tooltips="1" connect="1" arrows="1" fold="1" page="1" pageScale="1" pageWidth="827" pageHeight="1169" math="0" shadow="0">
      <root>
        <mxCell id="0" />
        <mxCell id="1" parent="0" />
        <mxCell id="gGQ1gs4iJyz3_hoVxbIv-1" value="plan" style="ellipse;whiteSpace=wrap;html=1;" vertex="1" parent="1">
          <mxGeometry x="350" y="200" width="120" height="70" as="geometry" />
        </mxCell>
        <mxCell id="gGQ1gs4iJyz3_hoVxbIv-2" value="" style="endArrow=classic;html=1;rounded=0;exitX=0.5;exitY=1;exitDx=0;exitDy=0;" edge="1" parent="1" source="gGQ1gs4iJyz3_hoVxbIv-1">
          <mxGeometry width="50" height="50" relative="1" as="geometry">
            <mxPoint x="380" y="330" as="sourcePoint" />
            <mxPoint x="410" y="300" as="targetPoint" />
          </mxGeometry>
        </mxCell>
        <mxCell id="gGQ1gs4iJyz3_hoVxbIv-5" value="" style="edgeStyle=orthogonalEdgeStyle;rounded=0;orthogonalLoop=1;jettySize=auto;html=1;" edge="1" parent="1" source="gGQ1gs4iJyz3_hoVxbIv-3">
          <mxGeometry relative="1" as="geometry">
            <mxPoint x="410" y="400" as="targetPoint" />
          </mxGeometry>
        </mxCell>
        <mxCell id="gGQ1gs4iJyz3_hoVxbIv-3" value="develop" style="ellipse;whiteSpace=wrap;html=1;" vertex="1" parent="1">
          <mxGeometry x="350" y="300" width="120" height="80" as="geometry" />
        </mxCell>
        <mxCell id="gGQ1gs4iJyz3_hoVxbIv-7" value="" style="edgeStyle=orthogonalEdgeStyle;rounded=0;orthogonalLoop=1;jettySize=auto;html=1;" edge="1" parent="1" source="gGQ1gs4iJyz3_hoVxbIv-4">
          <mxGeometry relative="1" as="geometry">
            <mxPoint x="410" y="510" as="targetPoint" />
          </mxGeometry>
        </mxCell>
        <mxCell id="gGQ1gs4iJyz3_hoVxbIv-4" value="Build" style="ellipse;whiteSpace=wrap;html=1;" vertex="1" parent="1">
          <mxGeometry x="350" y="400" width="120" height="70" as="geometry" />
        </mxCell>
        <mxCell id="gGQ1gs4iJyz3_hoVxbIv-9" value="" style="edgeStyle=orthogonalEdgeStyle;rounded=0;orthogonalLoop=1;jettySize=auto;html=1;" edge="1" parent="1" source="gGQ1gs4iJyz3_hoVxbIv-6">
          <mxGeometry relative="1" as="geometry">
            <mxPoint x="410" y="610" as="targetPoint" />
          </mxGeometry>
        </mxCell>
        <mxCell id="gGQ1gs4iJyz3_hoVxbIv-6" value="test" style="ellipse;whiteSpace=wrap;html=1;" vertex="1" parent="1">
          <mxGeometry x="350" y="510" width="120" height="70" as="geometry" />
        </mxCell>
        <mxCell id="gGQ1gs4iJyz3_hoVxbIv-11" value="" style="edgeStyle=orthogonalEdgeStyle;rounded=0;orthogonalLoop=1;jettySize=auto;html=1;" edge="1" parent="1" source="gGQ1gs4iJyz3_hoVxbIv-8">
          <mxGeometry relative="1" as="geometry">
            <mxPoint x="410" y="715" as="targetPoint" />
          </mxGeometry>
        </mxCell>
        <mxCell id="gGQ1gs4iJyz3_hoVxbIv-8" value="Release" style="ellipse;whiteSpace=wrap;html=1;" vertex="1" parent="1">
          <mxGeometry x="350" y="610" width="120" height="70" as="geometry" />
        </mxCell>
        <mxCell id="gGQ1gs4iJyz3_hoVxbIv-14" value="" style="edgeStyle=orthogonalEdgeStyle;rounded=0;orthogonalLoop=1;jettySize=auto;html=1;" edge="1" parent="1" source="gGQ1gs4iJyz3_hoVxbIv-10">
          <mxGeometry relative="1" as="geometry">
            <mxPoint x="410" y="830" as="targetPoint" />
          </mxGeometry>
        </mxCell>
        <mxCell id="gGQ1gs4iJyz3_hoVxbIv-19" style="edgeStyle=orthogonalEdgeStyle;rounded=0;orthogonalLoop=1;jettySize=auto;html=1;exitX=0.5;exitY=0;exitDx=0;exitDy=0;" edge="1" parent="1" source="gGQ1gs4iJyz3_hoVxbIv-10">
          <mxGeometry relative="1" as="geometry">
            <mxPoint x="409.5" y="749.75" as="targetPoint" />
          </mxGeometry>
        </mxCell>
        <mxCell id="gGQ1gs4iJyz3_hoVxbIv-10" value="deploy" style="ellipse;whiteSpace=wrap;html=1;" vertex="1" parent="1">
          <mxGeometry x="350" y="720" width="120" height="70" as="geometry" />
        </mxCell>
        <mxCell id="gGQ1gs4iJyz3_hoVxbIv-13" value="Maintain" style="ellipse;whiteSpace=wrap;html=1;" vertex="1" parent="1">
          <mxGeometry x="350" y="830" width="120" height="70" as="geometry" />
        </mxCell>
      </root>
    </mxGraphModel>
  </diagram>
</mxfile>
